<mxfile host="app.diagrams.net" agent="Mozilla/5.0 (Windows NT 10.0; Win64; x64) AppleWebKit/537.36 (KHTML, like Gecko) Chrome/135.0.0.0 Safari/537.36" version="26.2.13">
  <diagram name="Page-1" id="w0w3twvjFho2I2tO3Gxk">
    <mxGraphModel dx="2840" dy="1473" grid="1" gridSize="10" guides="1" tooltips="1" connect="1" arrows="1" fold="1" page="0" pageScale="1" pageWidth="827" pageHeight="1169" math="0" shadow="0">
      <root>
        <mxCell id="0" />
        <mxCell id="1" parent="0" />
        <mxCell id="H64d7IygdbQjr-Aj4s2n-1" value="&lt;span style=&quot;font-size: 15px;&quot;&gt;Naviguer via le menu&lt;/span&gt;" style="ellipse;whiteSpace=wrap;html=1;" vertex="1" parent="1">
          <mxGeometry x="-270" y="60" width="240" height="60" as="geometry" />
        </mxCell>
        <mxCell id="H64d7IygdbQjr-Aj4s2n-2" value="&lt;span style=&quot;font-size: 15px;&quot;&gt;Acceder à la page contact&lt;/span&gt;" style="ellipse;whiteSpace=wrap;html=1;" vertex="1" parent="1">
          <mxGeometry x="-275" y="130" width="250" height="60" as="geometry" />
        </mxCell>
        <mxCell id="H64d7IygdbQjr-Aj4s2n-3" value="&lt;span style=&quot;font-size: 15px;&quot;&gt;Rechercher des covoiturages&lt;/span&gt;" style="ellipse;whiteSpace=wrap;html=1;" vertex="1" parent="1">
          <mxGeometry x="-270" y="200" width="240" height="60" as="geometry" />
        </mxCell>
        <mxCell id="H64d7IygdbQjr-Aj4s2n-4" value="&lt;span style=&quot;font-size: 15px;&quot;&gt;Consulter la page d&#39;accueil&lt;/span&gt;" style="ellipse;whiteSpace=wrap;html=1;" vertex="1" parent="1">
          <mxGeometry x="-270" y="-80" width="240" height="60" as="geometry" />
        </mxCell>
        <mxCell id="H64d7IygdbQjr-Aj4s2n-5" value="&lt;font style=&quot;font-size: 15px;&quot;&gt;Rechercher un itinéraire depuis accueil&lt;/font&gt;" style="ellipse;whiteSpace=wrap;html=1;" vertex="1" parent="1">
          <mxGeometry x="-270" y="-10" width="240" height="60" as="geometry" />
        </mxCell>
        <mxCell id="H64d7IygdbQjr-Aj4s2n-6" value="&lt;font style=&quot;font-size: 15px;&quot;&gt;Consulter la liste des covoiturages trouvés&lt;/font&gt;" style="ellipse;whiteSpace=wrap;html=1;" vertex="1" parent="1">
          <mxGeometry x="-270" y="270" width="240" height="60" as="geometry" />
        </mxCell>
        <mxCell id="H64d7IygdbQjr-Aj4s2n-7" value="&lt;font style=&quot;font-size: 15px;&quot;&gt;Appliquer des filtres à la recherche&lt;/font&gt;" style="ellipse;whiteSpace=wrap;html=1;" vertex="1" parent="1">
          <mxGeometry x="-270" y="340" width="240" height="60" as="geometry" />
        </mxCell>
        <mxCell id="H64d7IygdbQjr-Aj4s2n-8" value="&lt;font style=&quot;font-size: 15px;&quot;&gt;Consulter les détails d&#39;un covoiturage&lt;/font&gt;" style="ellipse;whiteSpace=wrap;html=1;" vertex="1" parent="1">
          <mxGeometry x="-270" y="410" width="240" height="60" as="geometry" />
        </mxCell>
        <mxCell id="H64d7IygdbQjr-Aj4s2n-9" value="&lt;font style=&quot;font-size: 15px;&quot;&gt;Tenter de participer&lt;/font&gt;" style="ellipse;whiteSpace=wrap;html=1;" vertex="1" parent="1">
          <mxGeometry x="-270" y="480" width="240" height="60" as="geometry" />
        </mxCell>
        <mxCell id="H64d7IygdbQjr-Aj4s2n-10" value="&lt;font style=&quot;font-size: 15px;&quot;&gt;Acceder à la page d&#39;inscription&lt;/font&gt;" style="ellipse;whiteSpace=wrap;html=1;" vertex="1" parent="1">
          <mxGeometry x="-270" y="550" width="240" height="60" as="geometry" />
        </mxCell>
        <mxCell id="H64d7IygdbQjr-Aj4s2n-13" value="&lt;span style=&quot;font-size: 15px;&quot;&gt;Visiteur&lt;/span&gt;" style="shape=umlActor;verticalLabelPosition=bottom;verticalAlign=top;html=1;outlineConnect=0;" vertex="1" parent="1">
          <mxGeometry x="-480" y="220" width="90" height="160" as="geometry" />
        </mxCell>
      </root>
    </mxGraphModel>
  </diagram>
</mxfile>
